<svg width="32" height="32" viewBox="0 0 32 32" fill="none" xmlns="http://www.w3.org/2000/svg">
<path d="M15.9449 3.00153C15.7474 3.01225 15.5576 3.08158 15.3995 3.20073L3.44327 12.1998C3.33034 12.2755 3.23402 12.3735 3.1602 12.4878C3.08638 12.6021 3.03662 12.7303 3.01397 12.8645C2.99132 12.9988 2.99626 13.1363 3.02848 13.2686C3.0607 13.4008 3.11953 13.5251 3.20136 13.6338C3.28319 13.7425 3.3863 13.8333 3.50436 13.9006C3.62242 13.9679 3.75295 14.0103 3.88795 14.0253C4.02294 14.0402 4.15956 14.0274 4.28943 13.9875C4.4193 13.9476 4.53967 13.8816 4.64318 13.7934L15.9956 5.24545L27.3557 13.7934C27.4592 13.8816 27.5796 13.9476 27.7095 13.9875C27.8394 14.0274 27.976 14.0402 28.111 14.0253C28.246 14.0103 28.3765 13.9679 28.4946 13.9006C28.6126 13.8333 28.7157 13.7425 28.7976 13.6338C28.8794 13.5251 28.9382 13.4008 28.9704 13.2686C29.0027 13.1363 29.0076 12.9988 28.985 12.8645C28.9623 12.7303 28.9125 12.6021 28.8387 12.4878C28.7649 12.3735 28.6686 12.2755 28.5557 12.1998L16.5994 3.20073C16.4115 3.05906 16.1797 2.98851 15.9449 3.00153ZM15.9449 7.45226C15.7474 7.46298 15.5576 7.53232 15.3995 7.65146L5.43791 15.1742C5.31476 15.2671 5.21479 15.3875 5.14584 15.5257C5.0769 15.664 5.04086 15.8164 5.04055 15.971V27.9952C5.04005 28.1266 5.06541 28.2569 5.11519 28.3785C5.16496 28.5002 5.23817 28.6108 5.33062 28.704C5.42307 28.7972 5.53295 28.8713 5.65398 28.9219C5.775 28.9725 5.90479 28.9987 6.03592 28.999H13.0075C13.1391 28.9995 13.2695 28.9739 13.3912 28.9236C13.5129 28.8733 13.6235 28.7994 13.7166 28.7061C13.8096 28.6128 13.8834 28.5019 13.9335 28.3799C13.9837 28.2579 14.0092 28.1271 14.0087 27.9952L13.986 20.9978H17.9909V27.9952C17.9904 28.1266 18.0158 28.2569 18.0656 28.3785C18.1153 28.5002 18.1885 28.6108 18.281 28.704C18.3734 28.7972 18.4833 28.8713 18.6044 28.9219C18.7254 28.9725 18.8552 28.9987 18.9863 28.999H25.9656C26.2301 28.9979 26.4834 28.8916 26.6697 28.7033C26.856 28.5151 26.9601 28.2603 26.9591 27.9952V15.971C26.9588 15.8164 26.9227 15.664 26.8538 15.5257C26.7848 15.3875 26.6849 15.2671 26.5617 15.1742L16.6001 7.65146C16.4122 7.5098 16.1797 7.43925 15.9449 7.45226ZM15.9956 9.70399L24.9637 16.465V26.9992H19.9868V19.994C19.9858 19.7288 19.8797 19.4749 19.6919 19.2881C19.5042 19.1013 19.2501 18.997 18.9856 18.998H12.9919C12.8603 18.9975 12.7299 19.0231 12.6082 19.0734C12.4865 19.1236 12.3759 19.1976 12.2828 19.2909C12.1897 19.3842 12.116 19.4951 12.0659 19.6171C12.0157 19.7391 11.9902 19.8698 11.9907 20.0018L12.0133 26.9992H7.03716V16.465L15.9956 9.70399Z" fill="#106FEC"/>
</svg>
