<svg width="193" height="56" viewBox="0 0 193 56" fill="none" xmlns="http://www.w3.org/2000/svg">
<path d="M185.852 56H7.14816C3.21846 56 0 52.8482 0 49V7C0 3.15175 3.21846 2.95956e-06 7.14816 2.95956e-06H185.852C189.782 2.95956e-06 193 3.15175 193 7V49C193 52.8482 189.782 56 185.852 56Z" fill="#404040"/>
<mask id="path-2-inside-1_4580_1548" fill="white">
<path d="M185.852 1.12175C189.162 1.12175 191.855 3.759 191.855 7V49C191.855 52.241 189.162 54.8783 185.852 54.8783H7.14816C3.83856 54.8783 1.14549 52.241 1.14549 49V7C1.14549 3.759 3.83856 1.12175 7.14816 1.12175H185.852ZM185.852 2.95956e-06H7.14816C3.21846 2.95956e-06 0 3.15175 0 7V49C0 52.8482 3.21846 56 7.14816 56H185.852C189.782 56 193 52.8482 193 49V7C193 3.15175 189.782 2.95956e-06 185.852 2.95956e-06Z"/>
</mask>
<path d="M185.852 1.12175C189.162 1.12175 191.855 3.759 191.855 7V49C191.855 52.241 189.162 54.8783 185.852 54.8783H7.14816C3.83856 54.8783 1.14549 52.241 1.14549 49V7C1.14549 3.759 3.83856 1.12175 7.14816 1.12175H185.852ZM185.852 2.95956e-06H7.14816C3.21846 2.95956e-06 0 3.15175 0 7V49C0 52.8482 3.21846 56 7.14816 56H185.852C189.782 56 193 52.8482 193 49V7C193 3.15175 189.782 2.95956e-06 185.852 2.95956e-06Z" fill="#404040"/>
<path d="M185.852 -0.11666C189.843 -0.11666 193.108 3.06428 193.108 7H190.602C190.602 4.45373 188.481 2.36016 185.852 2.36016V-0.11666ZM193.108 7V49H190.602V7H193.108ZM193.108 49C193.108 52.9357 189.843 56.1167 185.852 56.1167V53.6398C188.481 53.6398 190.602 51.5463 190.602 49H193.108ZM185.852 56.1167H7.14816V53.6398H185.852V56.1167ZM7.14816 56.1167C3.1575 56.1167 -0.107499 52.9357 -0.107499 49H2.39848C2.39848 51.5463 4.51963 53.6398 7.14816 53.6398V56.1167ZM-0.107499 49V7H2.39848V49H-0.107499ZM-0.107499 7C-0.107499 3.06428 3.15749 -0.11666 7.14816 -0.11666V2.36016C4.51963 2.36016 2.39848 4.45372 2.39848 7H-0.107499ZM7.14816 -0.11666H185.852V2.36016H7.14816V-0.11666ZM185.852 1.23842H7.14816V-1.23841H185.852V1.23842ZM7.14816 1.23842C3.89952 1.23842 1.25299 3.84647 1.25299 7H-1.25299C-1.25299 2.45703 2.53739 -1.23841 7.14816 -1.23841V1.23842ZM1.25299 7V49H-1.25299V7H1.25299ZM1.25299 49C1.25299 52.1535 3.89952 54.7616 7.14816 54.7616V57.2384C2.53739 57.2384 -1.25299 53.543 -1.25299 49H1.25299ZM7.14816 54.7616H185.852V57.2384H7.14816V54.7616ZM185.852 54.7616C189.101 54.7616 191.747 52.1535 191.747 49H194.253C194.253 53.543 190.463 57.2384 185.852 57.2384V54.7616ZM191.747 49V7H194.253V49H191.747ZM191.747 7C191.747 3.84647 189.101 1.23842 185.852 1.23842V-1.23841C190.463 -1.23841 194.253 2.45703 194.253 7H191.747Z" fill="black" mask="url(#path-2-inside-1_4580_1548)"/>
<path d="M67.7908 14.3416C67.7908 15.5106 67.4334 16.4468 66.7293 17.1451C65.9198 17.9728 64.8655 18.3893 63.5734 18.3893C62.3386 18.3893 61.2842 17.9658 60.4193 17.1311C59.5526 16.2841 59.1201 15.2446 59.1201 14.0003C59.1201 12.7561 59.5526 11.7166 60.4193 10.8766C61.2842 10.0348 62.3386 9.61133 63.5734 9.61133C64.1882 9.61133 64.7743 9.73558 65.3337 9.96658C65.8912 10.1993 66.3451 10.5143 66.6739 10.9028L65.9269 11.6413C65.3533 10.9781 64.5724 10.6508 63.5734 10.6508C62.6728 10.6508 61.8918 10.9588 61.2288 11.5801C60.573 12.2031 60.2442 13.0098 60.2442 14.0003C60.2442 14.9908 60.573 15.8046 61.2288 16.4276C61.8918 17.0418 62.6728 17.3568 63.5734 17.3568C64.5295 17.3568 65.3337 17.0418 65.9681 16.4206C66.3862 16.0093 66.6239 15.4423 66.6864 14.7178H63.5734V13.7063H67.7265C67.7765 13.9251 67.7908 14.1368 67.7908 14.3416Z" fill="white" stroke="white" stroke-width="0.16" stroke-miterlimit="10"/>
<path d="M74.3785 10.834H70.4774V13.494H73.9943V14.5055H70.4774V17.1655H74.3785V18.1962H69.373V9.80322H74.3785V10.834Z" fill="white" stroke="white" stroke-width="0.16" stroke-miterlimit="10"/>
<path d="M79.0295 18.1967H77.9251V10.8345H75.5322V9.80371H81.4241V10.8345H79.0295V18.1967Z" fill="white" stroke="white" stroke-width="0.16" stroke-miterlimit="10"/>
<path d="M85.6865 18.1967V9.80371H86.7891V18.1967H85.6865Z" fill="white" stroke="white" stroke-width="0.16" stroke-miterlimit="10"/>
<path d="M91.6769 18.1967H90.5815V10.8345H88.1797V9.80371H94.0787V10.8345H91.6769V18.1967Z" fill="white" stroke="white" stroke-width="0.16" stroke-miterlimit="10"/>
<path d="M105.234 17.1171C104.388 17.9658 103.341 18.3893 102.092 18.3893C100.836 18.3893 99.7884 17.9658 98.9431 17.1171C98.0996 16.2701 97.6797 15.2306 97.6797 14.0003C97.6797 12.7701 98.0996 11.7306 98.9431 10.8836C99.7884 10.0348 100.836 9.61133 102.092 9.61133C103.334 9.61133 104.381 10.0348 105.226 10.8906C106.077 11.7446 106.497 12.7771 106.497 14.0003C106.497 15.2306 106.077 16.2701 105.234 17.1171ZM99.7598 16.4136C100.396 17.0418 101.17 17.3568 102.092 17.3568C103.007 17.3568 103.788 17.0418 104.417 16.4136C105.051 15.7853 105.373 14.9786 105.373 14.0003C105.373 13.0221 105.051 12.2153 104.417 11.5871C103.788 10.9588 103.007 10.6438 102.092 10.6438C101.17 10.6438 100.396 10.9588 99.7598 11.5871C99.1254 12.2153 98.8037 13.0221 98.8037 14.0003C98.8037 14.9786 99.1254 15.7853 99.7598 16.4136Z" fill="white" stroke="white" stroke-width="0.16" stroke-miterlimit="10"/>
<path d="M108.045 18.1967V9.80371H109.385L113.553 16.3312H113.601L113.553 14.7177V9.80371H114.655V18.1967H113.504L109.14 11.3472H109.092L109.14 12.9677V18.1967H108.045Z" fill="white" stroke="white" stroke-width="0.16" stroke-miterlimit="10"/>
<path d="M97.4077 30.4535C94.0499 30.4535 91.3068 32.956 91.3068 36.4088C91.3068 39.8335 94.0499 42.3622 97.4077 42.3622C100.773 42.3622 103.516 39.8335 103.516 36.4088C103.516 32.956 100.773 30.4535 97.4077 30.4535ZM97.4077 40.0172C95.5653 40.0172 93.9802 38.528 93.9802 36.4088C93.9802 34.2615 95.5653 32.7985 97.4077 32.7985C99.2502 32.7985 100.842 34.2615 100.842 36.4088C100.842 38.528 99.2502 40.0172 97.4077 40.0172ZM84.0961 30.4535C80.7311 30.4535 77.9951 32.956 77.9951 36.4088C77.9951 39.8335 80.7311 42.3622 84.0961 42.3622C87.4593 42.3622 90.197 39.8335 90.197 36.4088C90.197 32.956 87.4593 30.4535 84.0961 30.4535ZM84.0961 40.0172C82.2519 40.0172 80.6614 38.528 80.6614 36.4088C80.6614 34.2615 82.2519 32.7985 84.0961 32.7985C85.9385 32.7985 87.5236 34.2615 87.5236 36.4088C87.5236 38.528 85.9385 40.0172 84.0961 40.0172ZM68.2558 32.2788V34.8093H74.4264C74.2459 36.2233 73.7634 37.2628 73.0236 37.9873C72.1229 38.8623 70.7201 39.8335 68.2558 39.8335C64.4583 39.8335 61.4847 36.8323 61.4847 33.1135C61.4847 29.3948 64.4583 26.3935 68.2558 26.3935C70.3091 26.3935 71.803 27.1793 72.9056 28.1978L74.7266 26.4145C73.1844 24.9725 71.1329 23.8648 68.2558 23.8648C63.0483 23.8648 58.6719 28.014 58.6719 33.1135C58.6719 38.213 63.0483 42.3622 68.2558 42.3622C71.0704 42.3622 73.1844 41.4592 74.8464 39.7652C76.5494 38.0975 77.0802 35.7525 77.0802 33.859C77.0802 33.271 77.0301 32.7303 76.9408 32.2788H68.2558ZM133.029 34.2405C132.527 32.9088 130.977 30.4535 127.821 30.4535C124.694 30.4535 122.09 32.8668 122.09 36.4088C122.09 39.7442 124.667 42.3622 128.122 42.3622C130.915 42.3622 132.527 40.6945 133.19 39.7232L131.117 38.3705C130.425 39.361 129.483 40.0172 128.122 40.0172C126.769 40.0172 125.798 39.41 125.177 38.213L133.309 34.9177L133.029 34.2405ZM124.737 36.2232C124.667 33.9273 126.558 32.7513 127.912 32.7513C128.974 32.7513 129.875 33.271 130.175 34.0148L124.737 36.2232ZM118.127 42H120.8V24.5H118.127V42ZM113.748 31.78H113.659C113.059 31.0835 111.913 30.4535 110.462 30.4535C107.417 30.4535 104.633 33.0715 104.633 36.428C104.633 39.7652 107.417 42.3622 110.462 42.3622C111.913 42.3622 113.059 41.727 113.659 41.0095H113.748V41.8635C113.748 44.1402 112.506 45.3635 110.503 45.3635C108.87 45.3635 107.857 44.2085 107.438 43.2372L105.113 44.1875C105.784 45.766 107.558 47.7085 110.503 47.7085C113.638 47.7085 116.282 45.9025 116.282 41.5082V30.8158H113.748V31.78ZM110.691 40.0172C108.848 40.0172 107.306 38.507 107.306 36.428C107.306 34.3298 108.848 32.7985 110.691 32.7985C112.506 32.7985 113.938 34.3298 113.938 36.428C113.938 38.507 112.506 40.0172 110.691 40.0172ZM145.545 24.5H139.151V42H141.817V35.3693H145.545C148.506 35.3693 151.41 33.271 151.41 29.9338C151.41 26.5983 148.499 24.5 145.545 24.5ZM145.615 32.935H141.817V26.9343H145.615C147.606 26.9343 148.742 28.553 148.742 29.9338C148.742 31.2883 147.606 32.935 145.615 32.935ZM162.097 30.4203C160.17 30.4203 158.167 31.2533 157.343 33.0995L159.709 34.0708C160.219 33.0995 161.155 32.7845 162.145 32.7845C163.528 32.7845 164.931 33.5983 164.952 35.035V35.2188C164.47 34.9458 163.437 34.5415 162.166 34.5415C159.618 34.5415 157.022 35.9153 157.022 38.479C157.022 40.824 159.109 42.3342 161.455 42.3342C163.249 42.3342 164.239 41.5415 164.861 40.6192H164.952V41.972H167.528V35.259C167.528 32.1563 165.162 30.4203 162.097 30.4203ZM161.775 40.0103C160.903 40.0103 159.688 39.5868 159.688 38.528C159.688 37.1735 161.203 36.6537 162.515 36.6537C163.689 36.6537 164.239 36.9075 164.952 37.2418C164.743 38.8622 163.319 40.0103 161.775 40.0103ZM176.91 30.8035L173.845 38.3897H173.754L170.585 30.8035H167.71L172.471 41.405L169.754 47.3042H172.54L179.876 30.8035H176.91ZM152.876 42H155.549V24.5H152.876V42Z" fill="white"/>
<path d="M14.9188 10.5544C14.4989 10.9849 14.2559 11.6551 14.2559 12.5231V43.4841C14.2559 44.3521 14.4989 45.0224 14.9188 45.4529L15.0225 45.5474L32.7392 28.2049V27.7954L15.0225 10.4529L14.9188 10.5544Z" fill="url(#paint0_linear_4580_1548)"/>
<path d="M38.6393 33.9878L32.7402 28.204V27.7945L38.6464 22.0108L38.7786 22.086L45.7731 25.9833C47.7692 27.0893 47.7692 28.9093 45.7731 30.0223L38.7786 33.9125L38.6393 33.9878Z" fill="url(#paint1_linear_4580_1548)"/>
<path d="M38.7767 33.913L32.7383 27.9997L14.918 45.4525C15.581 46.135 16.6621 46.2172 17.8916 45.5347L38.7767 33.913Z" fill="url(#paint2_linear_4580_1548)"/>
<path d="M38.7767 22.0863L17.8916 10.4645C16.6621 9.78901 15.581 9.87126 14.918 10.5538L32.7383 27.9995L38.7767 22.0863Z" fill="url(#paint3_linear_4580_1548)"/>
<defs>
<linearGradient id="paint0_linear_4580_1548" x1="31.1662" y1="43.8065" x2="7.67597" y2="19.8192" gradientUnits="userSpaceOnUse">
<stop stop-color="#00A0FF"/>
<stop offset="0.0066" stop-color="#00A1FF"/>
<stop offset="0.2601" stop-color="#00BEFF"/>
<stop offset="0.5122" stop-color="#00D2FF"/>
<stop offset="0.7604" stop-color="#00DFFF"/>
<stop offset="1" stop-color="#00E3FF"/>
</linearGradient>
<linearGradient id="paint1_linear_4580_1548" x1="48.3724" y1="27.9973" x2="13.7798" y2="27.9973" gradientUnits="userSpaceOnUse">
<stop stop-color="#FFE000"/>
<stop offset="0.4087" stop-color="#FFBD00"/>
<stop offset="0.7754" stop-color="#FFA500"/>
<stop offset="1" stop-color="#FF9C00"/>
</linearGradient>
<linearGradient id="paint2_linear_4580_1548" x1="35.4932" y1="24.7852" x2="3.63859" y2="-7.74367" gradientUnits="userSpaceOnUse">
<stop stop-color="#FF3A44"/>
<stop offset="1" stop-color="#C31162"/>
</linearGradient>
<linearGradient id="paint3_linear_4580_1548" x1="10.4322" y1="55.7528" x2="24.6567" y2="41.2274" gradientUnits="userSpaceOnUse">
<stop stop-color="#32A071"/>
<stop offset="0.0685" stop-color="#2DA771"/>
<stop offset="0.4762" stop-color="#15CF74"/>
<stop offset="0.8009" stop-color="#06E775"/>
<stop offset="1" stop-color="#00F076"/>
</linearGradient>
</defs>
</svg>
