<svg width="16" height="16" viewBox="0 0 16 16" fill="none" xmlns="http://www.w3.org/2000/svg">
<path d="M4.66634 13.7748V12.6668C4.66634 12.3132 4.80682 11.9741 5.05687 11.724C5.30691 11.474 5.64605 11.3335 5.99967 11.3335H9.99967C10.3533 11.3335 10.6924 11.474 10.9425 11.724C11.1925 11.9741 11.333 12.3132 11.333 12.6668V13.7748M14.6663 8.00016C14.6663 11.6821 11.6816 14.6668 7.99967 14.6668C4.31778 14.6668 1.33301 11.6821 1.33301 8.00016C1.33301 4.31826 4.31778 1.3335 7.99967 1.3335C11.6816 1.3335 14.6663 4.31826 14.6663 8.00016ZM9.99967 6.66683C9.99967 7.7714 9.10424 8.66683 7.99967 8.66683C6.8951 8.66683 5.99967 7.7714 5.99967 6.66683C5.99967 5.56226 6.8951 4.66683 7.99967 4.66683C9.10424 4.66683 9.99967 5.56226 9.99967 6.66683Z" stroke="#3B82F6" stroke-linecap="round" stroke-linejoin="round"/>
</svg>
