<svg width="193" height="56" viewBox="0 0 193 56" fill="none" xmlns="http://www.w3.org/2000/svg">
<path d="M191.928 49.5418C191.928 52.5261 189.471 54.9434 186.432 54.9434H6.57537C3.53784 54.9434 1.07227 52.5261 1.07227 49.5418V6.46535C1.07227 3.48245 3.53784 1.05664 6.57537 1.05664H186.43C189.471 1.05664 191.926 3.48245 191.926 6.46535L191.928 49.5418Z" fill="#404040"/>
<path d="M185.852 1.12175C189.161 1.12175 191.855 3.759 191.855 7V49C191.855 52.241 189.161 54.8783 185.852 54.8783H7.14815C3.83856 54.8783 1.14549 52.241 1.14549 49V7C1.14549 3.759 3.83856 1.12175 7.14815 1.12175H185.852ZM185.852 2.95956e-06H7.14815C3.21845 2.95956e-06 0 3.15175 0 7V49C0 52.8482 3.21845 56 7.14815 56H185.852C189.782 56 193 52.8482 193 49V7C193 3.15175 189.782 2.95956e-06 185.852 2.95956e-06Z" fill="#A6A6A6"/>
<path d="M43.0723 27.6979C43.0308 23.1857 46.8451 20.9905 47.0195 20.8883C44.8593 17.8041 41.5111 17.3827 40.3345 17.3491C37.5225 17.0593 34.7947 18.9969 33.3622 18.9969C31.9012 18.9969 29.6952 17.3771 27.3178 17.4247C24.2584 17.4709 21.3962 19.2055 19.8265 21.8991C16.587 27.3913 19.003 35.4623 22.1068 39.9017C23.6593 42.0759 25.4735 44.5035 27.8482 44.4181C30.1713 44.3243 31.0391 42.9677 33.8426 42.9677C36.6204 42.9677 37.4353 44.4181 39.857 44.3635C42.3503 44.3243 43.92 42.1795 45.4183 39.9857C47.2125 37.4937 47.933 35.0395 47.9616 34.9135C47.903 34.8939 43.1195 33.1061 43.0723 27.6979Z" fill="white"/>
<path d="M38.4975 14.4287C39.747 12.8985 40.6019 10.8167 40.3646 8.7041C38.5561 8.7825 36.2944 9.9291 34.992 11.4257C33.8397 12.7445 32.8104 14.9061 33.0763 16.9389C35.1078 17.0873 37.1936 15.9351 38.4975 14.4287Z" fill="white"/>
<path d="M76.6927 44.1058H73.4461L71.6676 38.6332H65.4859L63.7918 44.1058H60.6309L66.7554 25.4746H70.5382L76.6927 44.1058ZM71.1315 36.3372L69.5232 31.4722C69.353 30.9752 69.0342 29.8048 68.5639 27.9624H68.5067C68.3194 28.7548 68.0178 29.9252 67.6032 31.4722L66.0234 36.3372H71.1315Z" fill="white"/>
<path d="M92.4436 37.2233C92.4436 39.5081 91.8132 41.3141 90.5522 42.6399C89.4228 43.8201 88.0204 44.4095 86.3463 44.4095C84.5392 44.4095 83.2411 43.7739 82.4505 42.5027H82.3933V49.5797H79.3454V35.0939C79.3454 33.6575 79.3068 32.1833 79.2324 30.6713H81.913L82.0831 32.8007H82.1403C83.1568 31.1963 84.6993 30.3955 86.7694 30.3955C88.3878 30.3955 89.7388 31.0213 90.8196 32.2743C91.9032 33.5287 92.4436 35.1779 92.4436 37.2233ZM89.3385 37.3325C89.3385 36.0249 89.0383 34.9469 88.4349 34.0985C87.7759 33.2137 86.8909 32.7713 85.7816 32.7713C85.0296 32.7713 84.3462 33.0177 83.7358 33.5035C83.1239 33.9935 82.7236 34.6333 82.5363 35.4257C82.4419 35.7953 82.3948 36.0977 82.3948 36.3357V38.5757C82.3948 39.5529 82.7007 40.3775 83.3126 41.0509C83.9245 41.7243 84.7193 42.0603 85.6972 42.0603C86.8452 42.0603 87.7387 41.6263 88.3778 40.7611C89.0182 39.8945 89.3385 38.7521 89.3385 37.3325Z" fill="white"/>
<path d="M108.221 37.2233C108.221 39.5081 107.591 41.3141 106.329 42.6399C105.201 43.8201 103.798 44.4095 102.124 44.4095C100.317 44.4095 99.019 43.7739 98.2298 42.5027H98.1726V49.5797H95.1247V35.0939C95.1247 33.6575 95.0861 32.1833 95.0117 30.6713H97.6923L97.8624 32.8007H97.9196C98.9346 31.1963 100.477 30.3955 102.549 30.3955C104.166 30.3955 105.517 31.0213 106.6 32.2743C107.68 33.5287 108.221 35.1779 108.221 37.2233ZM105.116 37.3325C105.116 36.0249 104.815 34.9469 104.211 34.0985C103.552 33.2137 102.67 32.7713 101.559 32.7713C100.806 32.7713 100.124 33.0177 99.5122 33.5035C98.9003 33.9935 98.5014 34.6333 98.3142 35.4257C98.2212 35.7953 98.1726 36.0977 98.1726 36.3357V38.5757C98.1726 39.5529 98.4786 40.3775 99.0876 41.0509C99.6995 41.7229 100.494 42.0603 101.475 42.0603C102.623 42.0603 103.517 41.6263 104.156 40.7611C104.796 39.8945 105.116 38.7521 105.116 37.3325Z" fill="white"/>
<path d="M125.864 38.8806C125.864 40.4654 125.302 41.7548 124.174 42.7502C122.934 43.838 121.209 44.3812 118.991 44.3812C116.944 44.3812 115.303 43.9948 114.061 43.2206L114.767 40.7328C116.105 41.5252 117.573 41.9228 119.173 41.9228C120.321 41.9228 121.214 41.668 121.856 41.1612C122.495 40.6544 122.814 39.974 122.814 39.1256C122.814 38.3696 122.551 37.7326 122.024 37.216C121.499 36.6994 120.623 36.2192 119.399 35.7754C116.068 34.5588 114.404 32.7766 114.404 30.433C114.404 28.9014 114.987 27.6456 116.155 26.6684C117.319 25.6898 118.871 25.2012 120.813 25.2012C122.544 25.2012 123.982 25.4966 125.13 26.086L124.368 28.5192C123.296 27.948 122.084 27.6624 120.727 27.6624C119.655 27.6624 118.817 27.9214 118.216 28.4366C117.709 28.8972 117.454 29.4586 117.454 30.1236C117.454 30.86 117.745 31.469 118.328 31.9478C118.836 32.3902 119.758 32.869 121.096 33.3856C122.733 34.031 123.935 34.7856 124.708 35.6508C125.479 36.5132 125.864 37.5926 125.864 38.8806Z" fill="white"/>
<path d="M135.941 32.9106H132.581V39.4332C132.581 41.0922 133.173 41.921 134.36 41.921C134.904 41.921 135.356 41.8748 135.713 41.7824L135.798 44.049C135.197 44.2688 134.407 44.3794 133.427 44.3794C132.224 44.3794 131.283 44.0196 130.604 43.3014C129.928 42.5818 129.587 41.375 129.587 39.6796V32.9078H127.586V30.6678H129.587V28.208L132.581 27.3232V30.6678H135.941V32.9106Z" fill="white"/>
<path d="M151.099 37.2775C151.099 39.3425 150.496 41.0379 149.292 42.3637C148.03 43.7287 146.354 44.4091 144.266 44.4091C142.253 44.4091 140.65 43.7553 139.455 42.4477C138.26 41.1401 137.662 39.4895 137.662 37.5001C137.662 35.4183 138.277 33.7131 139.511 32.3873C140.742 31.0601 142.403 30.3965 144.491 30.3965C146.504 30.3965 148.124 31.0503 149.346 32.3593C150.516 33.6291 151.099 35.2685 151.099 37.2775ZM147.937 37.3741C147.937 36.1351 147.667 35.0725 147.119 34.1863C146.48 33.1139 145.567 32.5791 144.383 32.5791C143.158 32.5791 142.227 33.1153 141.588 34.1863C141.04 35.0739 140.77 36.1533 140.77 37.4301C140.77 38.6691 141.04 39.7317 141.588 40.6165C142.247 41.6889 143.168 42.2237 144.356 42.2237C145.519 42.2237 146.433 41.6777 147.092 40.5885C147.654 39.6855 147.937 38.6117 147.937 37.3741Z" fill="white"/>
<path d="M161.007 33.2963C160.705 33.2417 160.383 33.2137 160.046 33.2137C158.974 33.2137 158.145 33.6099 157.561 34.4037C157.054 35.1037 156.799 35.9885 156.799 37.0567V44.1057H153.753L153.781 34.9021C153.781 33.3537 153.743 31.9439 153.667 30.6727H156.322L156.433 33.2431H156.518C156.839 32.3597 157.347 31.6485 158.042 31.1151C158.721 30.6349 159.454 30.3955 160.245 30.3955C160.526 30.3955 160.781 30.4151 161.007 30.4501V33.2963Z" fill="white"/>
<path d="M174.639 36.7527C174.639 37.2875 174.603 37.7383 174.528 38.1065H165.384C165.419 39.4337 165.861 40.4487 166.71 41.1487C167.481 41.7745 168.477 42.0881 169.701 42.0881C171.055 42.0881 172.29 41.8767 173.401 41.4525L173.879 43.5245C172.58 44.0789 171.048 44.3547 169.279 44.3547C167.152 44.3547 165.482 43.7415 164.267 42.5165C163.055 41.2915 162.447 39.6465 162.447 37.5829C162.447 35.5571 163.012 33.8701 164.143 32.5247C165.327 31.0883 166.926 30.3701 168.939 30.3701C170.916 30.3701 172.413 31.0883 173.43 32.5247C174.235 33.6657 174.639 35.0769 174.639 36.7527ZM171.733 35.9785C171.753 35.0937 171.554 34.3293 171.141 33.6839C170.613 32.8537 169.803 32.4393 168.712 32.4393C167.715 32.4393 166.905 32.8439 166.286 33.6559C165.778 34.3013 165.477 35.0755 165.384 35.9771H171.733V35.9785Z" fill="white"/>
<path d="M70.1233 14.0132C70.1233 15.661 69.6186 16.9014 68.6107 17.7344C67.6772 18.503 66.3505 18.888 64.6321 18.888C63.78 18.888 63.0509 18.8516 62.4404 18.7788V9.77536C63.2367 9.64936 64.0945 9.58496 65.0209 9.58496C66.6578 9.58496 67.8916 9.93356 68.7237 10.6308C69.6558 11.419 70.1233 12.546 70.1233 14.0132ZM68.5435 14.0538C68.5435 12.9856 68.2547 12.1666 67.6772 11.5954C67.0996 11.0256 66.2561 10.74 65.1453 10.74C64.6735 10.74 64.2718 10.7708 63.9387 10.8352V17.6798C64.1231 17.7078 64.4605 17.7204 64.9509 17.7204C66.0974 17.7204 66.9824 17.4082 67.6057 16.7838C68.229 16.1594 68.5435 15.2494 68.5435 14.0538Z" fill="white"/>
<path d="M78.5 15.4519C78.5 16.4669 78.2041 17.2985 77.6122 17.9509C76.9918 18.6215 76.1697 18.9561 75.1432 18.9561C74.1539 18.9561 73.3662 18.6355 72.7786 17.9915C72.1925 17.3489 71.8994 16.5383 71.8994 15.5611C71.8994 14.5391 72.2011 13.7005 72.8072 13.0495C73.4134 12.3985 74.2283 12.0723 75.2548 12.0723C76.2441 12.0723 77.0389 12.3929 77.6408 13.0355C78.2127 13.6599 78.5 14.4663 78.5 15.4519ZM76.946 15.4995C76.946 14.8905 76.8116 14.3683 76.5443 13.9329C76.2298 13.4065 75.7823 13.1433 75.2004 13.1433C74.5986 13.1433 74.1411 13.4065 73.8266 13.9329C73.5578 14.3683 73.4248 14.8989 73.4248 15.5261C73.4248 16.1351 73.5592 16.6573 73.8266 17.0927C74.1511 17.6191 74.6028 17.8823 75.1861 17.8823C75.758 17.8823 76.2069 17.6149 76.53 17.0787C76.8073 16.6349 76.946 16.1085 76.946 15.4995Z" fill="white"/>
<path d="M89.7312 12.207L87.6225 18.8066H86.25L85.3765 15.9408C85.1549 15.2254 84.9748 14.5142 84.8347 13.8086H84.8075C84.6774 14.5338 84.4973 15.2436 84.2657 15.9408L83.3379 18.8066H81.9497L79.9668 12.207H81.5065L82.2685 15.3444C82.4529 16.0864 82.6045 16.7934 82.726 17.4626H82.7531C82.8647 16.911 83.0491 16.2082 83.3093 15.3584L84.2657 12.2084H85.4866L86.403 15.2912C86.6246 16.043 86.8047 16.7668 86.9434 17.464H86.9848C87.0863 16.785 87.2393 16.0612 87.4423 15.2912L88.2601 12.2084H89.7312V12.207Z" fill="white"/>
<path d="M97.498 18.8066H95.9998V15.0266C95.9998 13.8618 95.548 13.2794 94.6416 13.2794C94.197 13.2794 93.8382 13.439 93.5594 13.7596C93.2835 14.0802 93.1434 14.4582 93.1434 14.8908V18.8052H91.6451V14.0928C91.6451 13.5132 91.6266 12.8846 91.5908 12.2042H92.9075L92.9776 13.236H93.019C93.1934 12.9154 93.4536 12.6508 93.7953 12.4394C94.2013 12.193 94.6559 12.0684 95.1534 12.0684C95.7825 12.0684 96.3057 12.2672 96.7217 12.6662C97.2393 13.1548 97.498 13.8842 97.498 14.853V18.8066Z" fill="white"/>
<path d="M101.63 18.8065H100.133V9.17871H101.63V18.8065Z" fill="white"/>
<path d="M110.45 15.4519C110.45 16.4669 110.154 17.2985 109.562 17.9509C108.942 18.6215 108.118 18.9561 107.093 18.9561C106.103 18.9561 105.315 18.6355 104.729 17.9915C104.143 17.3489 103.85 16.5383 103.85 15.5611C103.85 14.5391 104.151 13.7005 104.757 13.0495C105.364 12.3985 106.178 12.0723 107.204 12.0723C108.194 12.0723 108.988 12.3929 109.591 13.0355C110.163 13.6599 110.45 14.4663 110.45 15.4519ZM108.895 15.4995C108.895 14.8905 108.76 14.3683 108.493 13.9329C108.18 13.4065 107.731 13.1433 107.151 13.1433C106.547 13.1433 106.09 13.4065 105.777 13.9329C105.508 14.3683 105.375 14.8989 105.375 15.5261C105.375 16.1351 105.509 16.6573 105.777 17.0927C106.101 17.6191 106.553 17.8823 107.136 17.8823C107.708 17.8823 108.156 17.6149 108.479 17.0787C108.758 16.6349 108.895 16.1085 108.895 15.4995Z" fill="white"/>
<path d="M117.702 18.8063H116.356L116.245 18.0461H116.203C115.743 18.6523 115.087 18.9561 114.235 18.9561C113.599 18.9561 113.084 18.7559 112.696 18.3583C112.345 17.9971 112.169 17.5477 112.169 17.0143C112.169 16.2079 112.512 15.5933 113.203 15.1677C113.892 14.7421 114.861 14.5335 116.109 14.5433V14.4201C116.109 13.5507 115.643 13.1167 114.709 13.1167C114.045 13.1167 113.458 13.2805 112.952 13.6053L112.648 12.6421C113.274 12.2627 114.047 12.0723 114.96 12.0723C116.721 12.0723 117.604 12.9823 117.604 14.8023V17.2327C117.604 17.8921 117.637 18.4171 117.702 18.8063ZM116.146 16.5383V15.5205C114.494 15.4925 113.667 15.9363 113.667 16.8505C113.667 17.1949 113.762 17.4525 113.955 17.6247C114.148 17.7969 114.393 17.8823 114.687 17.8823C115.015 17.8823 115.323 17.7801 115.603 17.5771C115.885 17.3727 116.058 17.1137 116.122 16.7959C116.138 16.7245 116.146 16.6377 116.146 16.5383Z" fill="white"/>
<path d="M126.216 18.8065H124.886L124.816 17.7467H124.774C124.35 18.5531 123.626 18.9563 122.61 18.9563C121.798 18.9563 121.122 18.6441 120.586 18.0197C120.05 17.3953 119.782 16.5847 119.782 15.5893C119.782 14.5211 120.072 13.6559 120.656 12.9951C121.22 12.3791 121.912 12.0711 122.736 12.0711C123.641 12.0711 124.274 12.3693 124.634 12.9671H124.663V9.17871H126.163V17.0285C126.163 17.6711 126.18 18.2633 126.216 18.8065ZM124.663 16.0233V14.9229C124.663 14.7325 124.649 14.5785 124.622 14.4609C124.537 14.1081 124.356 13.8113 124.08 13.5719C123.801 13.3325 123.465 13.2121 123.078 13.2121C122.519 13.2121 122.081 13.4291 121.759 13.8645C121.441 14.2999 121.279 14.8557 121.279 15.5347C121.279 16.1871 121.432 16.7163 121.739 17.1237C122.064 17.5577 122.501 17.7747 123.049 17.7747C123.541 17.7747 123.934 17.5941 124.233 17.2315C124.521 16.8969 124.663 16.4937 124.663 16.0233Z" fill="white"/>
<path d="M139.028 15.4519C139.028 16.4669 138.732 17.2985 138.141 17.9509C137.52 18.6215 136.699 18.9561 135.672 18.9561C134.684 18.9561 133.896 18.6355 133.307 17.9915C132.721 17.3489 132.428 16.5383 132.428 15.5611C132.428 14.5391 132.729 13.7005 133.336 13.0495C133.942 12.3985 134.757 12.0723 135.785 12.0723C136.772 12.0723 137.569 12.3929 138.169 13.0355C138.741 13.6599 139.028 14.4663 139.028 15.4519ZM137.476 15.4995C137.476 14.8905 137.341 14.3683 137.074 13.9329C136.758 13.4065 136.312 13.1433 135.729 13.1433C135.128 13.1433 134.671 13.4065 134.355 13.9329C134.086 14.3683 133.953 14.8989 133.953 15.5261C133.953 16.1351 134.088 16.6573 134.355 17.0927C134.679 17.6191 135.131 17.8823 135.714 17.8823C136.286 17.8823 136.737 17.6149 137.06 17.0787C137.336 16.6349 137.476 16.1085 137.476 15.4995Z" fill="white"/>
<path d="M147.085 18.8066H145.589V15.0266C145.589 13.8618 145.137 13.2794 144.229 13.2794C143.784 13.2794 143.426 13.439 143.148 13.7596C142.871 14.0802 142.732 14.4582 142.732 14.8908V18.8052H141.233V14.0928C141.233 13.5132 141.215 12.8846 141.18 12.2042H142.495L142.565 13.236H142.606C142.782 12.9154 143.042 12.6508 143.383 12.4394C143.79 12.193 144.243 12.0684 144.742 12.0684C145.37 12.0684 145.893 12.2672 146.309 12.6662C146.828 13.1548 147.085 13.8842 147.085 14.853V18.8066Z" fill="white"/>
<path d="M157.168 13.3061H155.518V16.5121C155.518 17.3269 155.811 17.7343 156.392 17.7343C156.66 17.7343 156.883 17.7119 157.059 17.6657L157.098 18.7787C156.802 18.8879 156.413 18.9425 155.934 18.9425C155.342 18.9425 154.882 18.7661 154.549 18.4133C154.214 18.0605 154.048 17.4669 154.048 16.6339V13.3061H153.063V12.2071H154.048V10.9975L155.517 10.5635V12.2057H157.167V13.3061H157.168Z" fill="white"/>
<path d="M165.099 18.8065H163.599V15.0545C163.599 13.8715 163.148 13.2793 162.243 13.2793C161.548 13.2793 161.073 13.6223 160.813 14.3083C160.769 14.4525 160.743 14.6289 160.743 14.8361V18.8051H159.246V9.17871H160.743V13.1561H160.772C161.243 12.4323 161.92 12.0711 162.796 12.0711C163.416 12.0711 163.93 12.2699 164.337 12.6689C164.845 13.1659 165.099 13.9051 165.099 14.8823V18.8065Z" fill="white"/>
<path d="M173.281 15.1947C173.281 15.4579 173.261 15.6791 173.225 15.8597H168.732C168.752 16.5121 168.966 17.0091 169.382 17.3535C169.762 17.6615 170.253 17.8155 170.853 17.8155C171.518 17.8155 172.124 17.7119 172.67 17.5033L172.905 18.5225C172.266 18.7941 171.514 18.9299 170.643 18.9299C169.599 18.9299 168.777 18.6289 168.183 18.0269C167.585 17.4249 167.289 16.6171 167.289 15.6035C167.289 14.6081 167.565 13.7793 168.121 13.1185C168.702 12.4129 169.486 12.0601 170.477 12.0601C171.446 12.0601 172.183 12.4129 172.68 13.1185C173.082 13.6785 173.281 14.3715 173.281 15.1947ZM171.851 14.8153C171.862 14.3799 171.764 14.0047 171.561 13.6883C171.301 13.2809 170.905 13.0765 170.368 13.0765C169.88 13.0765 169.481 13.2753 169.176 13.6743C168.927 13.9921 168.78 14.3715 168.732 14.8153H171.851Z" fill="white"/>
</svg>
