<svg width="30" height="30" viewBox="0 0 30 30" fill="none" xmlns="http://www.w3.org/2000/svg">
<path d="M28.3337 15C28.3337 22.3638 22.3641 28.3334 15.0003 28.3334M28.3337 15C28.3337 7.63622 22.3641 1.66669 15.0003 1.66669M28.3337 15H1.66699M15.0003 28.3334C7.63653 28.3334 1.66699 22.3638 1.66699 15M15.0003 28.3334C18.3354 24.6822 20.2307 19.944 20.3337 15C20.2307 10.0561 18.3354 5.31782 15.0003 1.66669M15.0003 28.3334C11.6653 24.6822 9.76999 19.944 9.66699 15C9.76999 10.0561 11.6653 5.31782 15.0003 1.66669M1.66699 15C1.66699 7.63622 7.63653 1.66669 15.0003 1.66669" stroke="#18181B" stroke-opacity="0.9" stroke-width="1.5" stroke-linecap="round" stroke-linejoin="round"/>
</svg>
