<svg width="146" height="181" viewBox="0 0 146 181" fill="none" xmlns="http://www.w3.org/2000/svg">
<path d="M0.707301 144.39L67.784 143.239L84.7699 163.104L0.707301 144.39Z" fill="#106FEC"/>
<g opacity="0.15">
<path d="M0.707301 144.39L67.784 143.239L84.7699 163.104L0.707301 144.39Z" fill="white"/>
</g>
<path d="M0.707307 144.39L63.6331 135.353L60.9752 119.001L0.707307 144.39Z" fill="#106FEC"/>
<g opacity="0.15">
<path d="M0.707307 144.39L63.6331 135.353L60.9752 119.001L0.707307 144.39Z" fill="white"/>
</g>
<path d="M63.6331 135.353L58.6845 143.394L0.707311 144.39L63.6331 135.353Z" fill="#106FEC"/>
<g opacity="0.2">
<path d="M63.6331 135.353L58.6845 143.394L0.707311 144.39L63.6331 135.353Z" fill="black"/>
</g>
<path d="M72.1309 137.426C72.0014 137.361 71.9008 137.249 71.8483 137.114C71.79 136.952 71.7932 136.775 71.8573 136.615C71.9214 136.456 72.0419 136.325 72.1959 136.249L73.8982 135.357C73.9683 135.318 74.0458 135.295 74.1255 135.289C74.2053 135.283 74.2853 135.295 74.3604 135.322C74.4354 135.35 74.5037 135.393 74.5606 135.449C74.6175 135.505 74.6618 135.573 74.6904 135.647C74.7484 135.809 74.746 135.986 74.6838 136.145C74.6216 136.305 74.5037 136.437 74.3518 136.516C73.7888 136.812 73.2255 137.086 72.6534 137.377C72.576 137.425 72.4886 137.455 72.3979 137.463C72.3073 137.472 72.2159 137.459 72.1309 137.426Z" fill="#455A64"/>
<path d="M79.8297 133.552C80.9223 132.922 81.9981 132.273 83.0572 131.605C83.2015 131.512 83.3075 131.371 83.3556 131.206C83.4038 131.042 83.3909 130.866 83.3193 130.71C83.2845 130.639 83.2346 130.576 83.1732 130.526C83.1117 130.475 83.0401 130.439 82.9633 130.419C82.8864 130.399 82.8062 130.396 82.7281 130.41C82.6499 130.424 82.5758 130.455 82.5106 130.5C81.4528 131.158 80.3903 131.802 79.3592 132.45C79.2101 132.535 79.0978 132.672 79.0443 132.835C78.9909 132.998 79.0001 133.175 79.0701 133.332C79.1212 133.45 79.2134 133.545 79.3296 133.6C79.4114 133.63 79.4987 133.64 79.5851 133.632C79.6716 133.623 79.7551 133.596 79.8297 133.552ZM88.311 128.089C89.3406 127.351 90.3698 126.591 91.372 125.818C91.5084 125.715 91.6021 125.565 91.6355 125.397C91.669 125.229 91.6397 125.055 91.5533 124.907C91.5095 124.839 91.4516 124.782 91.3834 124.738C91.3153 124.695 91.2385 124.667 91.1584 124.656C91.0783 124.645 90.9968 124.651 90.9195 124.675C90.8422 124.698 90.7709 124.738 90.7104 124.792C89.7259 125.551 88.7144 126.298 87.6981 127.031C87.5571 127.128 87.4566 127.273 87.4158 127.44C87.3749 127.606 87.3965 127.782 87.4764 127.933C87.5359 128.025 87.6191 128.1 87.7172 128.148C87.8125 128.192 87.9178 128.21 88.0221 128.199C88.1265 128.189 88.2263 128.151 88.311 128.089ZM96.29 121.754C97.2549 120.897 98.2241 120.03 99.1169 119.138C99.2404 119.023 99.317 118.866 99.3323 118.697C99.3476 118.529 99.3004 118.361 99.1998 118.225C99.1463 118.164 99.0807 118.115 99.0072 118.081C98.9337 118.047 98.8539 118.029 98.773 118.028C98.6921 118.027 98.6119 118.043 98.5374 118.075C98.463 118.106 98.396 118.153 98.3408 118.212C97.4476 119.082 96.5141 119.943 95.5578 120.782C95.4294 120.895 95.3465 121.05 95.3247 121.219C95.3029 121.389 95.3436 121.56 95.4392 121.701C95.4925 121.77 95.5608 121.825 95.6388 121.863C95.7461 121.911 95.865 121.926 95.9808 121.906C96.0965 121.887 96.204 121.834 96.29 121.754ZM103.592 114.518C104.456 113.546 105.311 112.547 106.113 111.568C106.227 111.441 106.287 111.276 106.282 111.106C106.276 110.936 106.206 110.775 106.084 110.656C106.023 110.603 105.951 110.564 105.873 110.541C105.796 110.517 105.714 110.51 105.634 110.519C105.554 110.529 105.476 110.554 105.406 110.595C105.336 110.636 105.275 110.69 105.227 110.755C104.439 111.73 103.605 112.706 102.731 113.651C102.616 113.774 102.551 113.936 102.548 114.105C102.545 114.273 102.605 114.437 102.716 114.564L102.878 114.642C102.995 114.7 103.127 114.72 103.255 114.697C103.384 114.675 103.501 114.612 103.592 114.518ZM110.051 106.402C110.78 105.343 111.503 104.248 112.196 103.149C112.294 103.012 112.334 102.843 112.308 102.677C112.282 102.51 112.191 102.361 112.056 102.261C111.913 102.181 111.744 102.159 111.585 102.201C111.426 102.243 111.29 102.345 111.205 102.486C110.53 103.571 109.815 104.648 109.095 105.689C108.994 105.821 108.948 105.987 108.966 106.152C108.984 106.317 109.064 106.469 109.19 106.577L109.29 106.625C109.423 106.68 109.571 106.689 109.71 106.648C109.848 106.607 109.969 106.52 110.051 106.402ZM115.427 97.4897C115.859 96.5878 116.345 95.7118 116.807 94.7468L117.17 93.9892C117.209 93.9175 117.233 93.8388 117.242 93.7577C117.25 93.6766 117.242 93.5946 117.219 93.5165C117.196 93.4384 117.157 93.3656 117.106 93.3024C117.054 93.2392 116.991 93.1868 116.919 93.1481C116.764 93.0882 116.592 93.0918 116.44 93.158C116.288 93.2242 116.168 93.3478 116.106 93.5019L115.752 94.2414C115.32 95.1433 114.888 96.0453 114.456 96.9472C114.372 97.0915 114.347 97.2632 114.387 97.4255C114.428 97.5878 114.53 97.7279 114.673 97.8157C114.816 97.8629 114.973 97.8559 115.112 97.7958C115.251 97.7358 115.363 97.6269 115.427 97.4897ZM118.9 88.409C119.06 88.4532 119.232 88.4342 119.378 88.3559C119.525 88.2777 119.636 88.1463 119.689 87.9885C120.147 86.7776 120.587 85.5356 121 84.303C121.029 84.2267 121.043 84.1451 121.04 84.0632C121.037 83.9813 121.018 83.9009 120.982 83.8269C120.947 83.7529 120.897 83.6869 120.836 83.6329C120.774 83.579 120.702 83.5383 120.624 83.5133C120.462 83.4732 120.291 83.498 120.147 83.5824C120.003 83.6667 119.897 83.8039 119.853 83.9647C119.449 85.1792 119.018 86.4032 118.573 87.5871C118.512 87.7301 118.507 87.8905 118.557 88.0374C118.608 88.1843 118.71 88.3074 118.846 88.3831L118.9 88.409ZM122.052 78.5868C122.218 78.61 122.387 78.5689 122.524 78.4718C122.661 78.3747 122.756 78.229 122.79 78.0643C123.104 76.8066 123.382 75.5316 123.624 74.2617C123.645 74.1837 123.649 74.1022 123.637 74.0224C123.624 73.9427 123.595 73.8665 123.551 73.7986C123.508 73.7307 123.45 73.6727 123.383 73.6283C123.316 73.5838 123.24 73.5539 123.16 73.5405C122.991 73.5271 122.823 73.5773 122.689 73.6814C122.555 73.7854 122.465 73.9358 122.436 74.103C122.198 75.3415 121.924 76.6075 121.623 77.8382C121.582 77.9717 121.589 78.1152 121.643 78.2441C121.696 78.373 121.793 78.4792 121.917 78.5443L122.052 78.5868ZM123.888 68.5007C124.057 68.4997 124.22 68.4349 124.343 68.3192C124.466 68.2034 124.541 68.0453 124.553 67.8766C124.683 66.6086 124.773 65.31 124.832 64.0297C124.839 63.95 124.829 63.8696 124.803 63.7938C124.778 63.7179 124.737 63.6483 124.683 63.5891C124.629 63.5299 124.563 63.4826 124.49 63.45C124.417 63.4175 124.338 63.4004 124.258 63.3999C124.088 63.416 123.93 63.4924 123.813 63.615C123.695 63.7377 123.625 63.8985 123.616 64.0683C123.566 65.3305 123.507 66.6107 123.349 67.8434C123.332 67.9653 123.354 68.0893 123.411 68.1982C123.469 68.3071 123.558 68.3954 123.668 68.4508C123.736 68.4862 123.812 68.5034 123.888 68.5007ZM124.194 58.3467C124.364 58.3181 124.517 58.2278 124.625 58.0931C124.732 57.9584 124.786 57.7887 124.776 57.6167C124.706 56.3521 124.608 55.0745 124.484 53.8288C124.48 53.7482 124.458 53.6695 124.421 53.598C124.384 53.5264 124.332 53.4638 124.268 53.4144C124.204 53.3649 124.131 53.3298 124.052 53.3114C123.974 53.293 123.892 53.2919 123.813 53.3079C123.647 53.3497 123.501 53.4491 123.402 53.5885C123.303 53.7279 123.256 53.8981 123.271 54.0686C123.404 55.2963 123.501 56.5515 123.563 57.7894C123.565 57.8956 123.596 57.9992 123.652 58.0889C123.709 58.1786 123.789 58.2511 123.884 58.2983C123.981 58.3441 124.088 58.3609 124.194 58.3467ZM123.072 48.396C123.232 48.3412 123.368 48.2299 123.452 48.0829C123.537 47.9358 123.566 47.7629 123.532 47.5965C123.288 46.3706 123.007 45.1275 122.701 43.9385C122.681 43.8611 122.644 43.7891 122.593 43.7274C122.542 43.6657 122.478 43.6159 122.406 43.5813C122.334 43.5468 122.255 43.5284 122.175 43.5274C122.095 43.5264 122.016 43.5429 121.943 43.5757C121.785 43.642 121.657 43.7641 121.583 43.9187C121.509 44.0733 121.494 44.2497 121.541 44.4144C121.843 45.5901 122.123 46.7885 122.363 48.0011C122.378 48.0899 122.414 48.1739 122.468 48.2461C122.523 48.3183 122.593 48.3765 122.674 48.4162C122.744 48.4477 122.819 48.4641 122.895 48.4644C122.972 48.4646 123.047 48.4487 123.117 48.4176L123.072 48.396ZM120.503 38.8725C120.661 38.8061 120.79 38.684 120.864 38.5294C120.938 38.3748 120.952 38.1984 120.905 38.0337C120.487 36.8689 120.033 35.7092 119.558 34.5947C119.527 34.5205 119.481 34.454 119.422 34.3995C119.362 34.3449 119.292 34.3038 119.216 34.2788C119.14 34.2538 119.059 34.2455 118.979 34.2545C118.899 34.2636 118.822 34.2897 118.753 34.3311C118.605 34.4169 118.492 34.5529 118.435 34.7146C118.378 34.8763 118.38 35.053 118.442 35.213C118.916 36.3053 119.361 37.4383 119.778 38.5806C119.825 38.7203 119.925 38.836 120.057 38.9024C120.134 38.9379 120.218 38.9555 120.303 38.954C120.389 38.9526 120.472 38.9321 120.548 38.8941L120.503 38.8725ZM116.599 29.9844C116.737 29.8859 116.836 29.7417 116.879 29.5773C116.921 29.4129 116.904 29.2388 116.83 29.0859C116.239 28.0046 115.627 26.9684 114.988 25.9863C114.944 25.9201 114.886 25.8641 114.819 25.822C114.751 25.7799 114.675 25.7527 114.596 25.7422C114.517 25.7317 114.437 25.7381 114.361 25.7611C114.285 25.784 114.214 25.823 114.154 25.8753C114.019 25.9776 113.926 26.1262 113.894 26.2926C113.861 26.4589 113.891 26.6315 113.977 26.7774C114.62 27.7504 115.237 28.7776 115.819 29.8769C115.875 29.9768 115.961 30.0566 116.065 30.1053C116.162 30.139 116.266 30.1475 116.367 30.1302C116.469 30.1128 116.564 30.0701 116.644 30.006L116.599 29.9844Z" fill="#455A64"/>
<path d="M110.528 22.2872L110.366 22.2095C109.976 21.8008 109.549 21.4292 109.09 21.0996C108.958 20.9961 108.871 20.8453 108.847 20.679C108.823 20.5126 108.865 20.3435 108.963 20.2072C109.004 20.1367 109.058 20.0751 109.123 20.0259C109.188 19.9768 109.262 19.9411 109.341 19.921C109.42 19.9009 109.502 19.8968 109.582 19.9089C109.663 19.921 109.74 19.9491 109.809 19.9915C110.318 20.3635 110.795 20.7773 111.235 21.2285C111.351 21.3536 111.414 21.5181 111.413 21.6884C111.412 21.8588 111.346 22.0222 111.228 22.1456C111.141 22.2397 111.027 22.3041 110.901 22.3295C110.776 22.3549 110.645 22.3401 110.528 22.2872Z" fill="#455A64"/>
</svg>
