<svg width="14" height="17" viewBox="0 0 14 17" fill="none" xmlns="http://www.w3.org/2000/svg">
<mask id="path-1-inside-1_5395_874" fill="white">
<path d="M7.26742 5.09733C6.63542 5.09733 5.65742 4.37867 4.62742 4.404C3.26742 4.422 2.02076 5.19267 1.32009 6.41333C-0.0912439 8.86333 0.956089 12.482 2.33276 14.4733C3.00809 15.4427 3.80476 16.5333 4.86076 16.4993C5.87409 16.456 6.25409 15.8413 7.48409 15.8413C8.70476 15.8413 9.05076 16.4993 10.1241 16.4733C11.2154 16.456 11.9081 15.4867 12.5748 14.508C13.3454 13.3827 13.6654 12.2913 13.6828 12.2313C13.6568 12.2227 11.5614 11.4173 11.5361 8.99333C11.5188 6.96667 13.1894 5.99733 13.2674 5.954C12.3148 4.56067 10.8521 4.40467 10.3408 4.37C9.00742 4.266 7.89076 5.09733 7.26742 5.09733ZM9.51942 3.05333C10.0814 2.37867 10.4528 1.43533 10.3494 0.5C9.54475 0.534667 8.57476 1.03667 7.99476 1.712C7.47476 2.30933 7.02542 3.27067 7.14609 4.188C8.03809 4.25733 8.95609 3.72933 9.51876 3.054"/>
</mask>
<path d="M7.26742 5.09733C6.63542 5.09733 5.65742 4.37867 4.62742 4.404C3.26742 4.422 2.02076 5.19267 1.32009 6.41333C-0.0912439 8.86333 0.956089 12.482 2.33276 14.4733C3.00809 15.4427 3.80476 16.5333 4.86076 16.4993C5.87409 16.456 6.25409 15.8413 7.48409 15.8413C8.70476 15.8413 9.05076 16.4993 10.1241 16.4733C11.2154 16.456 11.9081 15.4867 12.5748 14.508C13.3454 13.3827 13.6654 12.2913 13.6828 12.2313C13.6568 12.2227 11.5614 11.4173 11.5361 8.99333C11.5188 6.96667 13.1894 5.99733 13.2674 5.954C12.3148 4.56067 10.8521 4.40467 10.3408 4.37C9.00742 4.266 7.89076 5.09733 7.26742 5.09733ZM9.51942 3.05333C10.0814 2.37867 10.4528 1.43533 10.3494 0.5C9.54475 0.534667 8.57476 1.03667 7.99476 1.712C7.47476 2.30933 7.02542 3.27067 7.14609 4.188C8.03809 4.25733 8.95609 3.72933 9.51876 3.054" fill="#404040"/>
<path d="M4.62742 4.404L4.64066 5.40398L4.65201 5.4037L4.62742 4.404ZM1.32009 6.41333L2.1866 6.91249L2.18737 6.91115L1.32009 6.41333ZM2.33276 14.4733L1.51018 15.042L1.51225 15.045L2.33276 14.4733ZM4.86076 16.4993L4.89294 17.4989L4.90348 17.4984L4.86076 16.4993ZM10.1241 16.4733L10.1082 15.4734L10.0999 15.4736L10.1241 16.4733ZM12.5748 14.508L11.7497 13.943L11.7483 13.945L12.5748 14.508ZM13.6828 12.2313L14.6435 12.5089L14.91 11.5863L13.999 11.2826L13.6828 12.2313ZM11.5361 8.99333L10.5361 9.00189L10.5361 9.00378L11.5361 8.99333ZM13.2674 5.954L13.7531 6.82816L14.7122 6.29531L14.0929 5.38958L13.2674 5.954ZM10.3408 4.37L10.263 5.36702L10.2731 5.36771L10.3408 4.37ZM10.3494 0.5L11.3434 0.390191L11.2407 -0.539325L10.3064 -0.499073L10.3494 0.5ZM7.99476 1.712L8.74902 2.36861L8.75338 2.36353L7.99476 1.712ZM7.14609 4.188L6.15463 4.31842L6.26036 5.12217L7.06859 5.18499L7.14609 4.188ZM7.26742 4.09733C7.27839 4.09733 7.22547 4.09671 7.05554 4.03883C6.88648 3.98125 6.71751 3.91 6.46024 3.8096C6.0052 3.63201 5.33719 3.38624 4.60283 3.4043L4.65201 5.4037C4.94765 5.39643 5.28364 5.49732 5.73311 5.67274C5.92809 5.74883 6.18649 5.85566 6.41074 5.93204C6.63413 6.00812 6.94046 6.09733 7.26742 6.09733V4.09733ZM4.61419 3.40409C2.87568 3.4271 1.31656 4.41073 0.45281 5.91551L2.18737 6.91115C2.72495 5.9746 3.65916 5.4169 4.64066 5.40391L4.61419 3.40409ZM0.453578 5.91418C-0.410746 7.4146 -0.484931 9.19566 -0.203874 10.789C0.0785246 12.39 0.739607 13.9274 1.51019 15.042L3.15532 13.9047C2.54924 13.028 1.99832 11.7603 1.76572 10.4416C1.53178 9.11534 1.63959 7.86207 2.1866 6.91249L0.453578 5.91418ZM1.51225 15.045C1.84308 15.5198 2.26667 16.1202 2.77009 16.5921C3.27612 17.0665 3.98602 17.528 4.89294 17.4988L4.82858 15.4999C4.67949 15.5047 4.46306 15.4378 4.13792 15.133C3.81018 14.8258 3.49776 14.3962 3.15326 13.9017L1.51225 15.045ZM4.90348 17.4984C5.62148 17.4677 6.13677 17.2208 6.48134 17.0748C6.80955 16.9357 7.06657 16.8413 7.48409 16.8413V14.8413C6.67161 14.8413 6.12363 15.0542 5.70101 15.2333C5.29474 15.4055 5.11337 15.4876 4.81803 15.5002L4.90348 17.4984ZM7.48409 16.8413C7.88186 16.8413 8.11789 16.9361 8.46275 17.0851C8.83758 17.247 9.37175 17.4918 10.1483 17.473L10.0999 15.4736C9.80309 15.4808 9.6276 15.4097 9.25593 15.2491C8.85429 15.0756 8.30698 14.8413 7.48409 14.8413V16.8413ZM10.14 17.4732C11.012 17.4594 11.6841 17.0555 12.1911 16.5821C12.6781 16.1275 13.0767 15.5474 13.4012 15.071L11.7483 13.945C11.4062 14.4473 11.1251 14.8412 10.8262 15.1202C10.5474 15.3805 10.3275 15.47 10.1082 15.4735L10.14 17.4732ZM13.3998 15.073C14.2574 13.8208 14.6133 12.6133 14.6435 12.5089L12.722 11.9538C12.7175 11.9694 12.4335 12.9445 11.7497 13.943L13.3998 15.073ZM13.999 11.2826C14.0952 11.3147 13.7019 11.1781 13.2991 10.7942C12.922 10.4348 12.5453 9.87177 12.536 8.98288L10.5361 9.00378C10.5522 10.5389 11.2358 11.5905 11.9192 12.2419C12.577 12.8689 13.2443 13.1393 13.3665 13.18L13.999 11.2826ZM12.5361 8.98478C12.5299 8.27006 12.8158 7.74542 13.1284 7.37697C13.4505 6.9975 13.7785 6.81405 13.7531 6.82816L12.7818 5.07984C12.6565 5.14943 10.5137 6.37762 10.5361 9.00189L12.5361 8.98478ZM14.0929 5.38958C12.8663 3.59563 10.9855 3.41142 10.4084 3.37229L10.2731 5.36771C10.7187 5.39792 11.7632 5.5257 12.4419 6.51841L14.0929 5.38958ZM10.4185 3.37303C9.52926 3.30367 8.74943 3.54901 8.18918 3.75742C7.84003 3.8873 7.72545 3.94188 7.48607 4.02757C7.28051 4.10115 7.23586 4.09733 7.26742 4.09733V6.09733C7.61065 6.09733 7.93933 5.9896 8.16013 5.91055C8.3471 5.84362 8.71189 5.69687 8.88649 5.63192C9.37375 5.45066 9.81892 5.33233 10.263 5.36697L10.4185 3.37303ZM10.2878 3.69337C10.9863 2.85482 11.4824 1.6489 11.3434 0.390191L9.35547 0.609809C9.42308 1.22176 9.17656 1.90252 8.75108 2.4133L10.2878 3.69337ZM10.3064 -0.499073C9.19168 -0.45105 7.97311 0.202361 7.23613 1.06047L8.75338 2.36353C9.1764 1.87097 9.89783 1.52038 10.3925 1.49907L10.3064 -0.499073ZM7.24051 1.0554C6.60281 1.78794 5.98454 3.02539 6.15463 4.31842L8.13755 4.05758C8.0663 3.51594 8.3467 2.83072 8.749 2.3686L7.24051 1.0554ZM7.06859 5.18499C8.37918 5.28686 9.58694 4.5344 10.287 3.69411L8.75047 2.41389C8.32524 2.92427 7.69699 3.2278 7.22358 3.19101L7.06859 5.18499Z" fill="#404040" mask="url(#path-1-inside-1_5395_874)"/>
</svg>
