<svg width="16" height="17" viewBox="0 0 16 17" fill="none" xmlns="http://www.w3.org/2000/svg">
<path d="M8.15342 1C10.2122 1 11.7331 1.72583 12.9067 2.73759L12.0691 3.57522C11.0968 2.78093 9.81744 2.19533 8.15342 2.19533C4.65026 2.19533 1.92009 5.02362 1.92009 8.50867C1.92009 11.9937 4.65026 14.822 8.15342 14.822C10.3957 14.822 11.7072 13.9107 12.5423 13.0756L12.5446 13.0733C13.2632 12.3454 13.7058 11.3355 13.8759 10.0313L13.9495 9.46667H13.3801H8.65342V8.28H15.0852C15.1145 8.54123 15.1288 8.83409 15.1288 9.14867C15.1288 10.7114 14.6931 12.5952 13.3819 13.9064L13.3818 13.9064L13.3753 13.9132C12.0721 15.2664 10.4094 16 8.15342 16C4.01156 16 0.538086 12.6233 0.538086 8.5C0.538086 4.37672 4.01156 1 8.15342 1Z" fill="#404040" stroke="#404040"/>
</svg>
